<?xml version="1.0" encoding="UTF-8" standalone="no"?>
<!-- Created with Inkscape (http://www.inkscape.org/) -->

<svg
   xmlns:dc="http://purl.org/dc/elements/1.1/"
   xmlns:cc="http://creativecommons.org/ns#"
   xmlns:rdf="http://www.w3.org/1999/02/22-rdf-syntax-ns#"
   xmlns:svg="http://www.w3.org/2000/svg"
   xmlns="http://www.w3.org/2000/svg"
   version="1.1"
   width="512"
   height="512"
   id="svg3231">
  <metadata
     id="metadata3237">
    <rdf:RDF>
      <cc:Work
         rdf:about="">
        <dc:format>image/svg+xml</dc:format>
        <dc:type
           rdf:resource="http://purl.org/dc/dcmitype/StillImage" />
        <dc:title></dc:title>
      </cc:Work>
    </rdf:RDF>
  </metadata>
  <defs
     id="defs3235" />
  <path
     d="m 406.37112,420.07676 c -11.29147,-1.68188 -18.19438,-6.16842 -118.04061,-76.72047 -32.83481,-23.20131 -33.16472,-23.47436 -35.16394,-29.10331 l -1.71999,-4.84274 -11.55804,5.96413 c -27.26216,14.06774 -41.74967,18.57648 -62.66524,19.50244 -30.89999,1.36797 -55.75793,-8.37616 -79.055939,-30.98936 -18.033166,-17.5031 -30.959658,-41.78956 -36.020001,-67.67485 -2.141954,-10.95678 -2.084906,-32.67437 0.112638,-42.88074 5.074138,-23.56652 16.038945,-42.8352 34.306994,-60.28839 17.706808,-16.91699 36.457518,-26.18806 60.381318,-29.85483 15.92244,-2.44042 24.51362,-2.53502 36.95598,-0.40693 26.95291,4.6099 50.21107,16.13358 69.23841,34.30543 16.09822,15.37444 24.8778,31.53796 28.7891,53.00177 3.16869,17.38862 2.23144,31.72124 -3.56769,54.55765 -1.39348,5.48738 -2.5336,10.09988 -2.5336,10.25 0,0.15011 1.31738,0.27293 2.92752,0.27293 1.61013,0 6.46059,1.25025 10.77879,2.77834 8.181,2.89503 16.13672,7.94 50.79369,32.20987 9.9,6.93285 26.775,18.62902 37.5,25.99149 40.53985,27.82967 55.48288,38.39278 57.18563,40.42407 4.85008,5.78589 7.29943,20.83111 5.19194,31.89165 -4.3988,23.08576 -20.94964,35.02095 -43.83696,31.61185 z m 17.74151,-22.27839 c 1.76983,-0.75412 4.24711,-2.48843 5.50507,-3.85404 3.98667,-4.32783 4.69678,-16.30765 1.33693,-22.55433 -0.67433,-1.25373 -5.59062,-5.49609 -10.92509,-9.42748 -5.33447,-3.93139 -23.87403,-18.00376 -41.19903,-31.27193 -31.63423,-24.22676 -55.90557,-42.73989 -68,-51.86748 -9.24106,-6.97417 -15.3321,-9.63205 -22.10078,-9.64385 -3.08042,-0.005 -7.00531,0.47985 -8.72197,1.07828 -2.66313,0.92838 -3.56522,0.77188 -6.14683,-1.06639 -4.90961,-3.49595 -4.83218,-5.62927 0.8491,-23.39399 6.36512,-19.90303 8.12048,-28.94261 8.12048,-41.81813 0,-8.44955 -0.4644,-11.40066 -2.97173,-18.88455 -3.8064,-11.36134 -7.59473,-18.81826 -13.66982,-26.90757 -8.06273,-10.73595 -15.96096,-18.52728 -25.14303,-24.80275 -18.51858,-12.65647 -33.64781,-19.15783 -53.9155,-23.16867 l -11.20007,-2.21643 -13.99228,2.11924 c -15.96336,2.41778 -21.69811,4.17738 -33.3392,10.22949 -27.22443,14.15377 -46.970585,38.38287 -54.940237,67.41327 -1.819822,6.62891 -2.171689,10.57799 -2.174822,24.40843 -0.0033,14.58457 0.294943,17.61138 2.569172,26.07377 10.664214,39.68144 38.613627,69.66078 73.777517,79.13586 11.16946,3.00967 33.62617,3.21247 44.5,0.40186 14.98242,-3.87257 47.25886,-19.91085 53.5,-26.58436 5.20037,-5.56063 8.49324,-7.37848 12.06972,-6.66319 4.33102,0.86621 5.27167,2.15161 8.35934,11.42305 l 2.74665,8.24743 10.16214,7.17482 c 5.58918,3.94615 33.56215,23.89381 62.16215,44.32812 28.6,20.43432 53.125,37.75298 54.5,38.48591 8.52671,4.5451 22.03544,6.26729 28.28212,3.60561 z m -263.64848,-93.1588 c -16.05578,-3.04429 -31.58167,-11.65772 -44.75516,-24.8292 -16.803279,-16.80072 -24.898086,-36.77431 -24.863126,-61.34872 0.01802,-12.66785 2.175677,-22.50796 7.428037,-33.87601 3.908829,-8.46014 10.740339,-18.51146 15.362549,-22.60318 7.97302,-7.05796 22.5132,-15.35654 35.69406,-20.37182 3.3,-1.25564 8.20923,-3.27136 10.90941,-4.47938 4.55496,-2.03781 5.9989,-2.15954 20,-1.68601 11.55973,0.39095 16.8313,1.02947 22.53021,2.72896 24.06382,7.17616 37.33822,19.13191 49.06462,44.19065 4.65748,9.95281 6.92313,19.24995 7.63028,31.31107 0.8125,13.85774 -1.09856,24.15185 -6.9605,37.49356 -5.91452,13.46136 -12.56853,23.19226 -22.59021,33.03621 -9.81445,9.6404 -19.64311,15.43368 -32.11118,18.9272 -10.02137,2.80796 -26.88672,3.4885 -37.33899,1.50667 z m 23.76239,-21.5189 c 21.8403,-3.03771 41.08824,-14.94288 49.25358,-30.46417 9.65342,-18.34996 12.86003,-47.076 7.25379,-64.98234 -3.5815,-11.43931 -10.04424,-19.93073 -22.02164,-28.9343 -11.13109,-8.3674 -24.75471,-13.38508 -41.78399,-15.38936 -8.16367,-0.96083 -14.91682,1.05365 -32.59777,9.72402 -18.60378,9.12291 -28.15332,18.90189 -34.5262,35.35574 -7.57262,19.5514 -5.62275,42.40449 5.14902,60.34801 8.11199,13.51289 24.0891,26.96923 37.20283,31.3332 12.25814,4.07925 19.49493,4.75828 32.07038,3.0092 z"
     id="path3243"
     style="fill:#ffffff" />
</svg>
